<svg width="24" height="24" viewBox="0 0 24 24" fill="none" xmlns="http://www.w3.org/2000/svg">
<g clip-path="url(#clip0_1_4)">
<path d="M0 24V18.3333L17.6 0.766667C17.8667 0.522222 18.1613 0.333333 18.484 0.2C18.8067 0.0666668 19.1453 0 19.5 0C19.8547 0 20.1991 0.0666668 20.5333 0.2C20.8675 0.333333 21.1564 0.533333 21.4 0.8L23.2333 2.66667C23.5 2.91111 23.6947 3.2 23.8173 3.53333C23.94 3.86667 24.0009 4.2 24 4.53333C24 4.88889 23.9391 5.228 23.8173 5.55067C23.6955 5.87333 23.5009 6.16756 23.2333 6.43333L5.66666 24H0ZM19.4667 6.4L21.3333 4.53333L19.4667 2.66667L17.6 4.53333L19.4667 6.4Z" fill="white"/>
</g>
<defs>
<clipPath id="clip0_1_4">
<rect width="24" height="24" fill="white"/>
</clipPath>
</defs>
</svg>
